<svg width="193" height="33" viewBox="0 0 193 33" fill="none" xmlns="http://www.w3.org/2000/svg">
<path d="M18.8125 4.875H9.4375V28.3125H18.8125V4.875ZM0.0625 33V0.1875H23.5V4.875H28.1875V28.3125H23.5V33H0.0625ZM32.875 33V0.1875H42.25V33H32.875ZM65.6875 28.8984V33H51.625V28.3125H46.9375V4.875H51.625V0.1875H75.0625V9.5625H70.375V4.875H56.3125V28.3125H65.1016L65.6875 27.7266V18.9375H61V14.25H75.0625V33H70.375V28.3125H66.2734L65.6875 28.8984ZM79.75 33V0.1875H89.125V33H79.75ZM98.5 18.9375V33H93.8125V0.1875H103.188V9.5625H117.25V0.1875H126.625V33H117.25V18.9375H112.562V28.3125H103.188V18.9375H98.5ZM150.062 4.875H140.688V28.3125H150.062V4.875ZM136 28.3125H131.312V4.875H136V0.1875H154.75V4.875H159.438V28.3125H154.75V33H136V28.3125ZM168.812 18.9375V33H164.125V0.1875H173.5V9.5625H178.188V18.9375H182.875V0.1875H192.25V33H182.875V28.3125H173.5V18.9375H168.812Z" fill="#34AC40"/>
</svg>
