<svg width="128" height="63" viewBox="0 0 128 63" fill="none" xmlns="http://www.w3.org/2000/svg">
<path d="M37.1641 0.804688V0.921875L37.3789 0.804688H40.9922V11.7422C40.9922 11.8073 40.9531 11.8398 40.875 11.8398L40.9922 12.0547V12.9141C40.9922 12.9792 40.9531 13.0117 40.875 13.0117L40.9922 13.2266C40.9922 14.3854 40.2826 15.694 38.8633 17.1523C38.8633 17.2695 38.3685 18.0117 37.3789 19.3789C36.207 21.5404 35.4648 22.7057 35.1523 22.875H33.8828C33.7396 22.901 33.668 22.9727 33.668 23.0898V25.2188C33.668 25.375 33.6289 25.5182 33.5508 25.6484C33.6289 25.7656 33.668 25.9414 33.668 26.1758C33.4466 28.5326 33.3359 29.8737 33.3359 30.1992H33.4531C33.3099 30.5247 33.2383 30.987 33.2383 31.5859V32.1133C33.2383 32.1784 33.2708 32.2109 33.3359 32.2109C33.2708 32.3542 33.2383 32.4648 33.2383 32.543C33.2383 32.6081 33.2708 32.6406 33.3359 32.6406C33.3359 33.5651 32.9518 34.2747 32.1836 34.7695C31.7018 35.4206 31.0638 36.4818 30.2695 37.9531C29.4492 39.0078 28.9154 39.8932 28.668 40.6094C28.4596 40.7526 28.3555 40.9284 28.3555 41.1367L28.1406 41.0195L26.4414 41.7617L25.0742 41.5664V41.6641L24.8594 41.5664L24.6445 41.6641C24.5013 41.599 24.3971 41.5664 24.332 41.5664V43.5781L24.4297 44.6328H24.332L24.4297 44.8477V45.0625C24.4297 45.401 24.3971 45.7526 24.332 46.1172C24.332 46.1953 24.3646 46.306 24.4297 46.4492C24.4297 46.5013 24.3971 46.7096 24.332 47.0742C24.4753 48.5586 24.5469 49.444 24.5469 49.7305C24.4036 50.3685 24.332 50.8307 24.332 51.1172V51.5273C24.0716 51.5273 23.7135 51.8854 23.2578 52.6016H22.9453C22.9453 52.6667 22.9779 52.6992 23.043 52.6992L20.9336 55.668C20.7773 56.0456 20.3542 56.5078 19.6641 57.0547C19.6641 57.3411 19.5924 57.4844 19.4492 57.4844L19.5469 57.6797C18.987 58.3698 18.707 58.7995 18.707 58.9688C18.5638 59.2682 18.4922 59.444 18.4922 59.4961H17.9648C17.1706 59.2747 16.5326 59.1315 16.0508 59.0664L15.8359 59.1641C15.7057 59.099 15.6016 59.0664 15.5234 59.0664C15.5234 59.1315 15.4844 59.1641 15.4062 59.1641V59.0664L15.1914 59.1641C15.1263 59.1641 15.0938 59.1315 15.0938 59.0664L14.8789 59.1641L13.9219 59.0664C13.8568 59.0664 13.8242 59.099 13.8242 59.1641L13.2969 59.0664H12.6523C11.9622 59.2096 11.5716 59.2812 11.4805 59.2812H11.0703C10.901 59.2812 10.7578 59.2422 10.6406 59.1641C10.5104 59.2422 10.3672 59.2812 10.2109 59.2812H9.89844C9.82031 59.2812 9.78125 59.2422 9.78125 59.1641L9.58594 59.2812H9.25391C9.09766 59.2812 8.95443 59.2422 8.82422 59.1641C8.70703 59.2422 8.57031 59.2812 8.41406 59.2812C8.25781 59.2812 8.11458 59.2422 7.98438 59.1641L6.92969 59.4961L6.71484 59.3789L6.1875 59.4961C5.79688 59.418 5.51042 59.3789 5.32812 59.3789V59.4961L5.11328 59.3789L4.89844 59.4961V59.3789C4.54688 59.5221 4.26693 59.5938 4.05859 59.5938V59.4961L3.84375 59.5938C3.77865 59.5938 3.74609 59.5612 3.74609 59.4961C2.9388 59.7044 2.33333 59.8086 1.92969 59.8086H1.51953C1.36328 59.7956 1.18099 59.5807 0.972656 59.1641C1.11589 58.9167 1.1875 58.6367 1.1875 58.3242V58.2266L1.08984 57.582C1.15495 57.4648 1.1875 57.2891 1.1875 57.0547C1.04427 57.0547 0.972656 56.9831 0.972656 56.8398V56.4102L1.08984 55.7852C1.01172 55.6419 0.972656 55.5312 0.972656 55.4531H1.08984C1.01172 55.1016 0.940104 54.9258 0.875 54.9258L0.972656 54.7109V53.9688L1.08984 53.4414H0.972656L1.08984 53.2266C0.946615 53.0573 0.875 52.9141 0.875 52.7969C0.940104 52.5885 1.01172 52.4844 1.08984 52.4844C1.01172 52.3542 0.972656 52.25 0.972656 52.1719C0.972656 51.9635 1.04427 51.6771 1.1875 51.3125H1.08984L1.1875 51.1172V48.8711L1.30469 48.1289H1.1875L1.30469 47.9336V47.0742L1.40234 46.5469H1.30469L1.40234 46.332C1.40234 46.1237 1.36979 45.8763 1.30469 45.5898C1.39583 44.4831 1.46745 43.8841 1.51953 43.793C1.44141 43.6628 1.40234 43.5195 1.40234 43.3633V43.2656C1.40234 43.1875 1.44141 43.1484 1.51953 43.1484L1.40234 42.9336V42.8359C1.40234 42.7578 1.44141 42.7188 1.51953 42.7188C1.51953 42.6536 1.48047 42.6211 1.40234 42.6211L1.51953 42.0938V40.3945C1.51953 40.3164 1.55208 40.2773 1.61719 40.2773L1.51953 40.082C1.51953 39.7826 1.55208 39.3919 1.61719 38.9102C1.55208 38.7669 1.51953 38.6562 1.51953 38.5781L1.71484 38.0508C1.71484 37.9857 1.68229 37.9531 1.61719 37.9531L1.71484 37.4258L1.61719 36.9961H1.71484L1.61719 36.7812C1.76042 36.5469 1.83203 36.3385 1.83203 36.1562V36.0391C1.83203 35.5443 1.76042 35.2969 1.61719 35.2969L1.71484 35.082C1.71484 34.8867 1.75391 34.1836 1.83203 32.9727C1.83203 32.8945 1.79297 32.8555 1.71484 32.8555C1.71484 32.7773 1.75391 32.6732 1.83203 32.543C1.89714 29.5221 1.92969 27.1523 1.92969 25.4336C1.92969 24.6914 2.0013 24.125 2.14453 23.7344L2.04688 23.5195C2.11198 21.8919 2.21615 21.0781 2.35938 21.0781L2.26172 20.8633C2.37891 20.4857 2.48307 19.2161 2.57422 17.0547H2.45703L2.57422 16.8398C2.57422 16.7617 2.53516 16.7227 2.45703 16.7227L2.57422 16.5078V15.3555C2.71745 14.6133 2.82161 12.875 2.88672 10.1406H3.00391L2.78906 9.61328C2.85417 9.48307 2.88672 9.37891 2.88672 9.30078L2.78906 8.77344C3.53125 8.23958 5.15885 6.68359 7.67188 4.10547C9.05208 2.86849 9.89844 2.05469 10.2109 1.66406C10.4193 1.66406 10.5234 1.625 10.5234 1.54688L11.0703 1.66406H11.6953C11.7734 1.66406 11.8125 1.625 11.8125 1.54688C11.8776 1.54688 11.9102 1.58594 11.9102 1.66406L17.75 1.13672C18.4792 1.21484 18.9023 1.28646 19.0195 1.35156C19.0846 1.35156 19.1172 1.3125 19.1172 1.23438L19.6641 1.35156H19.7617C19.9701 1.35156 20.0742 1.3125 20.0742 1.23438C21.0378 1.32552 21.6042 1.39714 21.7734 1.44922L21.9883 1.35156C22.1315 1.41667 22.2357 1.44922 22.3008 1.44922C22.3008 1.38411 22.3398 1.35156 22.418 1.35156C22.418 1.41667 22.4505 1.44922 22.5156 1.44922V1.35156L22.7305 1.44922H25.1719L25.9141 1.35156V1.44922L26.1289 1.35156H26.2266C26.7344 1.35156 27.5156 1.3125 28.5703 1.23438V1.35156L28.7852 1.23438C28.8503 1.23438 28.8828 1.27344 28.8828 1.35156L29.0977 1.23438H29.2148C29.3711 1.23438 29.5078 1.27344 29.625 1.35156L29.8398 1.23438C29.918 1.23438 30.0221 1.27344 30.1523 1.35156L32.7109 1.13672V1.23438L32.9258 1.13672H33.7656C34.026 1.13672 34.3451 1.09766 34.7227 1.01953L34.9375 1.13672C35.2109 1.01953 35.9531 0.908854 37.1641 0.804688ZM35.582 2.93359H35.1523V3.03125C35.1523 3.1224 35.7513 3.72786 36.9492 4.84766H37.0664C37.0664 4.67839 37.1706 4.46354 37.3789 4.20312L36.1094 2.83594L35.582 2.93359ZM17.3203 3.03125C17.3724 3.17448 18.8958 4.69792 21.8906 7.60156H22.9453C22.8932 7.45833 21.3698 5.9349 18.375 3.03125H17.3203ZM30.0547 3.03125C30.0547 3.1224 31.3633 4.43099 33.9805 6.95703C34.1237 6.89193 34.2279 6.85938 34.293 6.85938V6.95703C34.4102 6.89193 34.5924 6.85938 34.8398 6.85938V6.76172C34.7747 6.60547 33.5703 5.40104 31.2266 3.14844C31.1484 3.14844 31.1094 3.18099 31.1094 3.24609L30.0547 3.03125ZM32.7109 3.14844C32.7109 3.23958 33.7721 4.30078 35.8945 6.33203L36.3242 5.6875C34.6836 3.91667 33.7591 3.03125 33.5508 3.03125L33.3359 3.14844L33.1406 3.03125C33.0104 3.10938 32.8672 3.14844 32.7109 3.14844ZM19.9766 3.14844L24.4297 7.69922C24.4427 7.63411 24.7943 7.60156 25.4844 7.60156C25.4453 7.45833 23.9609 5.97396 21.0312 3.14844H19.9766ZM27.7305 3.24609C30.2956 5.94141 31.6693 7.28906 31.8516 7.28906C32.0729 7.14583 32.3203 7.07422 32.5938 7.07422C30.1198 4.45703 28.7786 3.14844 28.5703 3.14844C28.0625 3.21354 27.7826 3.24609 27.7305 3.24609ZM14.9961 3.24609C15.0352 3.38932 16.5195 4.8737 19.4492 7.69922C19.5664 7.63411 19.7031 7.60156 19.8594 7.60156V7.69922C19.9766 7.63411 20.1589 7.60156 20.4062 7.60156C20.3542 7.45833 18.9023 6.00651 16.0508 3.24609H14.9961ZM22.6328 3.24609C22.6719 3.38932 24.1237 4.84115 26.9883 7.60156H28.043C27.9909 7.45833 26.5391 6.00651 23.6875 3.24609H22.6328ZM25.2891 3.36328C25.2891 3.45443 26.6302 4.79557 29.3125 7.38672H30.3672C30.3672 7.29557 28.987 5.91536 26.2266 3.24609L25.6016 3.36328V3.24609C25.4583 3.32422 25.3542 3.36328 25.2891 3.36328ZM12.6523 3.57812C12.7695 3.59115 14.1823 5.00391 16.8906 7.81641C17.2682 7.73828 17.6263 7.69922 17.9648 7.69922C17.9128 7.56901 16.4609 6.1237 13.6094 3.36328H12.8672C12.724 3.3763 12.6523 3.44792 12.6523 3.57812ZM10.7383 4.10547C10.7383 4.19661 12.0469 5.50521 14.6641 8.03125H15.7383C15.6862 7.88802 14.1953 6.40365 11.2656 3.57812C11.1745 3.57812 10.9987 3.75391 10.7383 4.10547ZM9.37109 5.27734L12.3398 8.34375C12.3529 8.27865 12.7044 8.24609 13.3945 8.24609L9.99609 4.73047C9.70964 4.83464 9.5013 5.01693 9.37109 5.27734ZM38.4336 5.27734C38.1602 5.58984 38.0234 5.76562 38.0234 5.80469V5.90234C38.0234 6.00651 38.4466 6.42969 39.293 7.17188V6.11719C39.293 6.02604 39.0065 5.74609 38.4336 5.27734ZM8.08203 6.54688C9.21484 7.82292 9.92448 8.46094 10.2109 8.46094C10.6406 8.35677 10.8555 8.24609 10.8555 8.12891L8.62891 6.01953C8.52474 6.01953 8.34245 6.19531 8.08203 6.54688ZM37.4766 6.95703C37.4766 7.1263 37.3724 7.34115 37.1641 7.60156C37.1641 7.69271 37.8346 8.36328 39.1758 9.61328V8.55859C39.1758 8.46745 38.6484 7.93359 37.5938 6.95703H37.4766ZM6.8125 7.81641C6.8125 7.89453 7.02734 8.10938 7.45703 8.46094C7.71745 8.38281 8.03646 8.34375 8.41406 8.34375C8.41406 8.2526 8.05599 7.90104 7.33984 7.28906C7.2487 7.28906 7.07292 7.46484 6.8125 7.81641ZM32.8086 9.08594C32.7565 9.08594 32.5482 9.05339 32.1836 8.98828C31.6367 8.98828 30.9271 9.0599 30.0547 9.20312C29.9375 9.125 29.7617 9.08594 29.5273 9.08594L29.2148 9.30078C25.8945 9.36589 23.8763 9.47005 23.1602 9.61328C22.6003 9.54818 22.0339 9.51562 21.4609 9.51562C20.9141 9.51562 19.9245 9.54818 18.4922 9.61328V9.51562C16.513 9.76302 15.5234 9.9388 15.5234 10.043L15.3086 9.94531C14.944 9.94531 14.5208 10.0104 14.0391 10.1406L13.8242 10.043C13.681 10.1081 13.5768 10.1406 13.5117 10.1406V10.043L13.2969 10.1406H13.1797C13.1146 10.1406 13.082 10.1081 13.082 10.043L12.6523 10.2578C12.5872 10.2578 12.5547 10.2188 12.5547 10.1406C11.4219 10.2839 10.3216 10.3555 9.25391 10.3555C9.25391 10.2904 9.22135 10.2578 9.15625 10.2578C9.15625 10.3229 9.11719 10.3555 9.03906 10.3555V10.2578C8.97396 10.2578 8.94141 10.2904 8.94141 10.3555L8.19922 10.2578H8.08203L7.76953 10.4727H5.85547L5.32812 10.3555C5.26302 10.5768 5.19141 10.6875 5.11328 10.6875L5.23047 10.8828C5.15234 11.026 5.11328 11.1367 5.11328 11.2148H5.23047C5.17839 11.3581 5.10677 11.7487 5.01562 12.3867H5.11328L5.01562 12.582L5.11328 13.0117L4.80078 15.3555C4.80078 15.4206 4.83333 15.4531 4.89844 15.4531L4.80078 16.5078V17.4648L4.70312 17.6797H4.80078C4.80078 17.7578 4.76823 17.7969 4.70312 17.7969L4.80078 18.4219C4.73568 19.3594 4.70312 20.1406 4.70312 20.7656C4.70312 20.8828 4.63151 21.0586 4.48828 21.293L4.58594 21.5078C4.53385 22.2891 4.42969 22.6797 4.27344 22.6797C4.41667 22.901 4.48828 23.0768 4.48828 23.207C4.48828 23.3372 4.41667 23.7604 4.27344 24.4766C4.33854 24.4766 4.37109 24.5091 4.37109 24.5742C4.30599 24.5742 4.27344 24.6133 4.27344 24.6914H4.37109C4.22786 24.9648 4.15625 25.3555 4.15625 25.8633V27.875L4.27344 28.5C4.19531 28.5 4.1237 29.3529 4.05859 31.0586L4.15625 31.5859C4.09115 31.9505 4.05859 32.3021 4.05859 32.6406V33.5977C4.05859 33.6758 4.02604 33.7148 3.96094 33.7148C3.96094 33.7799 3.99349 33.8125 4.05859 33.8125C4.00651 34.6589 3.9349 35.082 3.84375 35.082L4.05859 35.5117L3.96094 36.1562C3.96094 36.3125 3.99349 36.4492 4.05859 36.5664C3.99349 37.2044 3.92188 37.5234 3.84375 37.5234C3.84375 37.6016 3.88281 37.6406 3.96094 37.6406L3.84375 38.168V41.6641C3.84375 41.9766 3.77214 42.2565 3.62891 42.5039L3.74609 42.7188C3.66797 42.862 3.62891 42.9727 3.62891 43.0508H3.74609L3.62891 43.2656V43.4609C3.62891 43.5391 3.66797 43.5781 3.74609 43.5781C3.66797 43.7083 3.62891 43.8125 3.62891 43.8906C3.62891 46.7161 3.52474 48.9427 3.31641 50.5703C3.38151 50.5703 3.41406 50.6094 3.41406 50.6875H3.31641C3.38151 50.8177 3.41406 50.9219 3.41406 51C3.41406 51.3516 3.34896 51.5273 3.21875 51.5273C3.21875 51.6055 3.2513 51.6445 3.31641 51.6445C3.31641 51.7878 3.28385 52.1719 3.21875 52.7969C3.28385 53.6823 3.31641 54.1836 3.31641 54.3008C3.31641 54.3268 3.28385 54.4635 3.21875 54.7109C3.29688 55.4792 3.36198 55.9414 3.41406 56.0977L3.31641 56.3125C3.38151 56.7031 3.41406 56.9831 3.41406 57.1523H4.15625C4.40365 57.1523 4.58594 57.1914 4.70312 57.2695C5.54948 57.1914 5.97266 57.1198 5.97266 57.0547C6.03776 57.0547 6.07031 57.0872 6.07031 57.1523L7.14453 57.0547H10.1133C10.1784 57.0547 10.2109 57.0156 10.2109 56.9375L10.4258 57.0547H13.2969C13.362 57.0547 13.6419 56.9831 14.1367 56.8398L14.4492 57.0547H15.8359C15.9401 57.0547 16.0443 56.9505 16.1484 56.7422V55.668C16.1484 55.6029 16.1875 55.5703 16.2656 55.5703L16.1484 55.3555C16.1484 55.2773 16.1875 55.2383 16.2656 55.2383L16.1484 55.043V54.7109L16.3633 54.3984C16.2201 54.3984 16.1484 54.3268 16.1484 54.1836C16.2786 54.0273 16.3893 53.6367 16.4805 53.0117C16.4805 52.9466 16.4414 52.9141 16.3633 52.9141L16.6953 49.0859L16.5781 48.8711L16.6953 48.2461V47.3867C16.6953 47.3216 16.7279 47.2891 16.793 47.2891L16.6953 47.0742V46.9766L16.793 46.7617H16.6953C16.7604 46.6185 16.793 46.5143 16.793 46.4492L16.6953 46.2344C16.6953 46.1562 16.7279 46.1172 16.793 46.1172L16.6953 45.5898L16.793 45.1602C16.793 45.0951 16.7604 45.0625 16.6953 45.0625L16.793 44.5352V43.1484L17.1055 41.5664C17.0404 41.5664 16.9036 41.4232 16.6953 41.1367C16.6953 39.7956 17.3268 39.125 18.5898 39.125C18.668 39.125 18.7786 39.1576 18.9219 39.2227C20.6536 39.2878 22.0273 39.3203 23.043 39.3203H23.1602C23.3424 39.3203 23.6615 39.3919 24.1172 39.5352V39.4375L24.332 39.5352H25.4844L26.0312 39.4375C26.1615 37.4062 26.2982 36.0977 26.4414 35.5117H26.3438L26.4414 35.2969C26.4414 35.0885 26.4089 34.9844 26.3438 34.9844C26.4349 34.138 26.5391 33.7148 26.6562 33.7148L26.5586 33.5C26.5586 33.3568 26.6302 33.1094 26.7734 32.7578H26.6562L26.9883 31.1562C26.9883 31.0911 26.9492 31.0586 26.8711 31.0586L27.0859 29.6719L26.9883 29.457C27.1185 29.1966 27.1836 28.9167 27.1836 28.6172V28.2852L26.6562 28.1875C26.2135 28.3698 25.6146 28.5456 24.8594 28.7148L24.6445 28.6172H24.332L23.8047 28.7148C23.8047 28.6497 23.7656 28.6172 23.6875 28.6172V28.7148L23.4727 28.6172L23.2578 28.7148C23.0104 28.6497 22.8737 28.6172 22.8477 28.6172C22.5872 28.7604 22.3008 28.832 21.9883 28.832H21.2461C21.181 28.832 21.1484 28.8646 21.1484 28.9297L20.9336 28.832H20.5039L20.1914 29.0469H20.0742L19.8594 28.9297C19.8594 29.0078 19.8268 29.0469 19.7617 29.0469V28.9297C19.6315 29.0078 19.5273 29.0469 19.4492 29.0469C19.306 28.9688 19.1953 28.9297 19.1172 28.9297C19.1172 29.0078 19.0846 29.0469 19.0195 29.0469V28.9297L18.1797 29.1445C18.1016 28.9362 17.8867 28.832 17.5352 28.832C17.2878 28.8971 17.1445 28.9297 17.1055 28.9297C16.9753 28.7995 16.7995 28.4089 16.5781 27.7578C16.7214 27.7578 16.793 27.6862 16.793 27.543V27.0156C16.793 26.5208 16.7604 26.2409 16.6953 26.1758C16.7604 25.694 16.793 25.3034 16.793 25.0039V21.0781C16.793 20.7266 17.0404 20.4792 17.5352 20.3359C17.5352 20.2708 17.5677 20.2383 17.6328 20.2383H17.75L18.375 20.3359C18.5182 20.2708 18.6289 20.2383 18.707 20.2383C18.8372 20.3034 18.9414 20.3359 19.0195 20.3359V20.2383C19.3711 20.3685 20.0091 20.4336 20.9336 20.4336H21.1484C21.2135 20.4336 21.2461 20.401 21.2461 20.3359C21.3242 20.3359 21.3633 20.3685 21.3633 20.4336L22.418 20.3359H24.7422L24.957 20.4336V20.3359L25.1719 20.4336H28.2578C28.3229 20.4336 28.3555 20.4727 28.3555 20.5508L28.5703 20.4336H28.668C28.7461 20.4336 28.7852 20.4727 28.7852 20.5508L29 20.4336L29.2148 20.5508V20.4336L29.4102 20.5508L29.625 20.4336C29.8854 20.5768 30.1719 20.6484 30.4844 20.6484H31.5391C31.8385 20.6484 32.125 20.6159 32.3984 20.5508C32.6719 20.6159 32.9518 20.6484 33.2383 20.6484H33.8828C33.9349 19.8021 34.0065 19.3789 34.0977 19.3789L33.9805 19.1641V18.7539C33.9805 18.3893 34.0521 17.9596 34.1953 17.4648L34.0977 17.25L34.1953 17.0547C34.1953 16.9766 34.1628 16.9375 34.0977 16.9375L34.4102 14.7109L34.293 14.4961C34.6576 13.4805 34.8398 11.7812 34.8398 9.39844H34.7227C34.8659 9.17708 34.9375 8.96875 34.9375 8.77344H34.8398C34.293 8.77344 33.6159 8.8776 32.8086 9.08594ZM37.1641 9.08594C37.1641 9.77604 37.1315 10.1276 37.0664 10.1406L39.0781 12.0547V11C39.0781 10.9089 38.4401 10.2708 37.1641 9.08594ZM37.0664 11.5273L36.9492 11.7422V12.1719C36.9492 12.5625 37.5547 13.2656 38.7656 14.2812L38.9609 13.9688V13.4414C38.9609 13.3503 38.3294 12.7122 37.0664 11.5273ZM36.8516 13.8711L36.9492 14.0664L36.7344 14.3984V14.8086C36.7344 14.8997 37.0208 15.1862 37.5938 15.668C37.5938 15.6029 37.737 15.388 38.0234 15.0234C38.0234 14.9323 37.6328 14.5482 36.8516 13.8711ZM19.1172 22.6797C19.1172 22.7578 19.651 23.2852 20.7188 24.2617C21.0443 23.9753 21.2591 23.832 21.3633 23.832C21.3633 23.7409 20.9727 23.3568 20.1914 22.6797H19.1172ZM24.4297 22.875C24.4427 22.9792 25.543 24.0794 27.7305 26.1758L28.043 25.3164L25.2891 22.6797H24.6445C24.5013 22.6927 24.4297 22.7578 24.4297 22.875ZM26.7734 22.6797C26.7734 22.7708 27.444 23.4414 28.7852 24.6914L29.3125 24.0469L27.8281 22.6797H26.7734ZM23.6875 23.6172C23.6875 23.7214 23.5117 23.9036 23.1602 24.1641C23.1602 24.2552 23.974 25.069 25.6016 26.6055C25.7448 26.6055 25.8164 26.5339 25.8164 26.3906L26.0312 26.4883C26.1224 26.4883 26.2266 26.3841 26.3438 26.1758L23.6875 23.6172ZM31.4414 23.7344C31.4414 23.8776 31.2982 24.0859 31.0117 24.3594C31.0117 24.4505 31.2917 24.737 31.8516 25.2188L31.9688 24.6914V24.2617C31.9688 24.1706 31.793 23.9948 31.4414 23.7344ZM19.0195 24.0469C19.0195 24.1641 18.9479 24.3789 18.8047 24.6914C18.9479 25.1341 19.1237 25.3815 19.332 25.4336C19.4362 25.4336 19.612 25.2578 19.8594 24.9062C19.8594 24.8151 19.5794 24.5286 19.0195 24.0469ZM22.3008 24.7891C22.1576 25.0755 21.9818 25.2188 21.7734 25.2188V25.3164C21.7734 25.4206 22.1966 25.8503 23.043 26.6055H24.1172C24.1172 26.5143 23.5117 25.9089 22.3008 24.7891ZM30.2695 25.1016L29.7422 25.7461L31.6562 27.543L31.7539 27.0156V26.6055C31.7539 26.5013 31.2591 26 30.2695 25.1016ZM29.625 27.0156V28.0898C29.625 28.181 30.263 28.8125 31.5391 29.9844C31.5391 29.4245 31.5781 29.1445 31.6562 29.1445C31.6562 28.9492 30.9792 28.2396 29.625 27.0156ZM29.4102 29.3594C29.4102 29.8542 29.3776 30.1341 29.3125 30.1992C29.3776 30.1992 29.4102 30.2383 29.4102 30.3164C29.3451 30.3164 29.3125 30.349 29.3125 30.4141L31.3242 32.3281L31.5391 31.8008C31.474 31.6576 31.4414 31.5469 31.4414 31.4688C31.5065 31.4688 31.5391 31.4362 31.5391 31.3711L29.4102 29.3594ZM29.2148 31.6836C29.1367 32.3086 29.0977 32.6667 29.0977 32.7578L30.2695 33.8125L30.6992 33.0703L29.2148 31.6836ZM19.9766 41.3516V41.4492L22.6328 44.0078V42.9336C21.8906 42.0221 21.3242 41.5664 20.9336 41.5664C20.6211 41.5664 20.3021 41.4948 19.9766 41.3516ZM19.2344 42.0938L19.1172 42.3086V43.0508C19.1432 43.1549 20.276 44.2878 22.5156 46.4492V45.375C22.5156 45.2839 21.4219 44.1901 19.2344 42.0938ZM19.0195 44.418V45.4922C19.0716 45.6354 20.276 46.8333 22.6328 49.0859V48.0312C22.5677 47.888 21.3633 46.6836 19.0195 44.418ZM19.0195 46.9766V48.0312C19.0195 48.1354 19.9049 49.0208 21.6758 50.6875C21.9362 50.5573 22.112 50.3424 22.2031 50.043L19.0195 46.9766ZM18.9219 49.418V50.4727C18.9219 50.5638 19.4883 51.1302 20.6211 52.1719C20.6211 52.1328 20.7578 51.957 21.0312 51.6445V51.5273C21.0312 51.4362 20.3281 50.7331 18.9219 49.418ZM18.707 51.7422V51.8594H18.8047L18.707 52.0547C18.707 52.1328 18.7396 52.1719 18.8047 52.1719L18.707 52.6992V52.7969C18.707 52.888 18.987 53.1745 19.5469 53.6562C19.5469 53.6172 19.6901 53.4414 19.9766 53.1289V53.0117C19.9766 52.9206 19.5534 52.4974 18.707 51.7422ZM66.5 0.746094C66.5 0.811198 66.5391 0.84375 66.6172 0.84375V0.746094L66.832 0.863281L68.6289 0.921875C71.5195 1.01302 74.1367 1.77474 76.4805 3.20703C78.5117 4.17057 80.6602 6.49479 82.9258 10.1797C84.1628 12.5625 84.8008 14.2161 84.8398 15.1406H84.9375C84.9375 15.2188 84.9049 15.2578 84.8398 15.2578L85.2109 16.5273C85.2109 16.5924 85.1719 16.625 85.0938 16.625L85.4258 18.9883C85.6732 20.8633 85.2565 23.0638 84.1758 25.5898L81.7148 30.668C80.2695 32.8424 79.3125 34.151 78.8438 34.5938C78.6745 34.9714 77.8802 35.7917 76.4609 37.0547C73.401 39.6589 71.5911 41.0846 71.0312 41.332C67.5938 42.7643 65.6927 43.474 65.3281 43.4609C65.2109 43.4609 64.7812 43.4154 64.0391 43.3242C64.0391 43.3893 64.0065 43.4219 63.9414 43.4219C63.9805 43.9818 64.1888 44.6979 64.5664 45.5703C64.5794 45.8568 64.625 46 64.7031 46L64.5859 46.2148V46.3125C64.7812 46.8464 64.957 47.5625 65.1133 48.4609H65.0156C65.1458 48.6823 65.2695 49.0664 65.3867 49.6133C65.1133 49.9779 64.7747 50.4336 64.3711 50.9805C63.9805 52.2826 62.9258 53.9492 61.207 55.9805C60.9336 57.1133 60.6536 57.9141 60.3672 58.3828V58.4805L52.9258 58.2461L52.9453 58.5781C52.737 58.5651 52.4896 58.5195 52.2031 58.4414C48.7526 58.4935 46.4284 58.6628 45.2305 58.9492L45.0156 58.8516C44.9115 58.8385 44.3451 58.8516 43.3164 58.8906C42.8216 58.6823 42.5677 58.4284 42.5547 58.1289L42.6328 57.9141V57.8164L42.4961 56.7617H42.5938C42.5807 56.6836 42.5417 56.6445 42.4766 56.6445L42.5547 56.1172L42.4766 54.3203C42.4766 54.2422 42.5156 54.2031 42.5938 54.2031L42.457 53.9688C42.457 53.7344 42.4896 53.5651 42.5547 53.4609L42.418 52.7969C42.4049 52.7318 42.4375 52.7057 42.5156 52.7188L42.3984 52.4844C42.4766 52.3802 42.5091 52.2435 42.4961 52.0742C42.418 52.0612 42.3789 52.0221 42.3789 51.957L42.4961 51.9766C42.4049 51.8203 42.3594 51.7096 42.3594 51.6445C42.5417 51.306 42.6589 49.8607 42.7109 47.3086H42.8086L42.7109 47.0938C42.737 46.1693 42.737 45.4271 42.7109 44.8672L42.6914 44.5547L42.8867 44.2227L42.6719 44.125C42.776 43.9036 42.8542 43.3372 42.9062 42.4258L42.7891 41.8984L42.7109 40.4141C42.7109 40.3359 42.6719 40.2969 42.5938 40.2969L42.7109 40.1016C42.7109 40.0234 42.6719 39.9844 42.5938 39.9844L42.6914 39.7695L42.6133 38.1875C42.6133 38.1094 42.5742 38.0703 42.4961 38.0703L42.6133 37.8555L42.5156 35.9609C42.5547 33.4219 42.5677 32.0026 42.5547 31.7031L42.4961 30.4336C42.4961 30.2904 42.5612 30.2188 42.6914 30.2188L42.5547 29.6914L42.5352 29.0664C42.5221 28.8971 42.5547 28.7539 42.6328 28.6367C42.5417 28.5065 42.4961 28.3633 42.4961 28.207C42.6263 27.9727 42.6849 27.7578 42.6719 27.5625V27.25C42.6589 27.1849 42.6198 27.1523 42.5547 27.1523L42.7109 26.0781C42.7109 26.013 42.6784 25.9805 42.6133 25.9805L42.6914 25.4531L42.6719 25.2383C42.6719 25.1602 42.6393 25.1211 42.5742 25.1211C42.6263 24.9909 42.6523 24.8867 42.6523 24.8086C42.5872 24.6784 42.5482 24.5742 42.5352 24.4961C42.6003 24.4961 42.6328 24.457 42.6328 24.3789H42.5352C42.5352 24.3138 42.5677 24.2812 42.6328 24.2812L42.4961 23.5391L42.4766 23.0117C42.4635 22.8424 42.4896 22.6992 42.5547 22.582C42.5547 22.5169 42.5221 22.4779 42.457 22.4648L42.5352 21.9375L42.457 20.3359C42.431 19.2812 42.4766 18.7604 42.5938 18.7734C42.5286 18.6302 42.4961 18.5195 42.4961 18.4414C42.457 17.6341 42.3594 16.4232 42.2031 14.8086L42.3008 14.2812C42.2227 14.1641 42.1771 13.9883 42.1641 13.7539C42.2552 13.2201 43.4531 11.4557 45.7578 8.46094C45.7448 8.39583 46.4544 7.74479 47.8867 6.50781C48.3815 5.98698 49.0326 5.58984 49.8398 5.31641C49.8398 5.17318 50.1523 4.96484 50.7773 4.69141V4.59375L51.4219 4.61328C51.4089 4.44401 51.7148 4.27474 52.3398 4.10547C53.1211 3.72786 54.4427 3.23958 56.3047 2.64062C59.1823 1.40365 62.5482 0.772135 66.4023 0.746094H66.5ZM64.7031 3.34375C68.4141 7.14583 70.3672 9.04688 70.5625 9.04688L73.4141 10.9609V10.8438L65.7773 3.38281H65.4453C65.3802 3.36979 65.3477 3.39583 65.3477 3.46094L65.1328 3.36328L64.7031 3.34375ZM67.2617 3.44141C71.7148 7.93359 76.9232 13.0833 82.8867 18.8906C82.8737 18.6042 82.8997 18.4674 82.9648 18.4805C82.9388 17.8945 82.4896 17.276 81.6172 16.625C77.1771 12.1458 72.7435 7.75781 68.3164 3.46094L67.2617 3.44141ZM69.918 3.61719C74.1758 7.9401 78.4206 12.1458 82.6523 16.2344C82.6003 15.1927 82.138 14.3984 81.2656 13.8516C78.0625 10.5833 74.6315 7.1849 70.9727 3.65625C70.9076 3.65625 70.875 3.69531 70.875 3.77344L70.3281 3.63672L69.918 3.61719ZM62.4766 3.59766C65.1589 6.35807 66.6042 7.74479 66.8125 7.75781C67.0859 7.83594 67.3724 7.88151 67.6719 7.89453L67.8867 7.91406C67.8477 7.79688 66.3633 6.33203 63.4336 3.51953C63.056 3.57161 62.737 3.59766 62.4766 3.59766ZM60.6016 3.85156L60.3867 3.83203V3.94922C60.4128 4.05339 61.5977 5.22526 63.9414 7.46484L64.9961 7.50391L61.3438 3.77344L60.6016 3.85156ZM72.9062 4.14453C75.6406 6.94401 78.5573 9.82812 81.6562 12.7969L81.6367 12.582C81.2721 11.4492 80.3802 10.2904 78.9609 9.10547C76.2786 6.25391 74.5859 4.71745 73.8828 4.49609L72.9062 4.14453ZM58.2773 4.30078C58.2904 4.39193 59.4036 5.48568 61.6172 7.58203C61.8646 7.46484 62.138 7.41276 62.4375 7.42578L59.2344 4.125C58.974 4.25521 58.6549 4.3138 58.2773 4.30078ZM56.5195 4.98438C56.5195 5.08854 57.4375 6 59.2734 7.71875L59.7031 7.73828L60.2305 7.66016C58.4466 5.75911 57.457 4.80859 57.2617 4.80859C56.806 4.92578 56.5586 4.98438 56.5195 4.98438ZM54.7422 5.78516L56.9688 7.85547C57.5156 7.84245 57.7891 7.7513 57.7891 7.58203L55.4648 5.375C54.9831 5.55729 54.7422 5.69401 54.7422 5.78516ZM52.8672 6.25391C52.8672 6.34505 53.5312 7.0026 54.8594 8.22656H55.0742L55.7969 8.14844L53.6875 5.96094C53.349 6.15625 53.0755 6.25391 52.8672 6.25391ZM51.0898 6.9375L52.8672 8.8125C53.1667 8.59115 53.4466 8.48698 53.707 8.5C53.707 8.40885 53.1146 7.82292 51.9297 6.74219H51.8125L51.0898 6.9375ZM49.5469 7.93359C49.638 7.93359 50.1133 8.41536 50.9727 9.37891C51.5065 9.2487 51.8255 9.18359 51.9297 9.18359L50.2695 7.42578C49.8268 7.59505 49.5859 7.76432 49.5469 7.93359ZM48.6094 8.34375L48.1211 8.96875C48.7852 9.63281 49.1823 9.96484 49.3125 9.96484C49.5208 9.82161 49.7617 9.75651 50.0352 9.76953C50.0352 9.66536 49.5599 9.1901 48.6094 8.34375ZM66.4805 9.86719C64.0586 9.55469 61.9753 9.5612 60.2305 9.88672C56.7018 10.1732 54.2083 10.5573 52.75 11.0391C51.3828 11.4818 50.1003 11.9635 48.9023 12.4844L44.8203 14.0469C44.7943 14.6719 44.7422 15.0625 44.6641 15.2188L44.8008 15.4336C44.6576 15.5638 44.5794 16.2669 44.5664 17.543L44.7227 18.6172C44.6836 19.1901 44.625 19.5417 44.5469 19.6719L44.7031 20.3164L44.7227 20.9414C44.7227 21.0195 44.7552 21.0586 44.8203 21.0586C44.7682 21.1888 44.7422 21.293 44.7422 21.3711C44.7552 21.7747 44.7552 22.6602 44.7422 24.0273C44.9245 24.9258 45.0286 25.6745 45.0547 26.2734L45.0742 26.5859C45.0872 26.8984 45.0286 27.1849 44.8984 27.4453C44.9766 27.5755 45.0221 27.6797 45.0352 27.7578L44.8398 28.5781C44.918 28.8776 44.9635 29.1315 44.9766 29.3398C44.9245 29.5612 44.8594 29.6654 44.7812 29.6523C44.8724 29.8737 44.9505 29.9844 45.0156 29.9844C44.9505 30.0495 44.8984 30.5052 44.8594 31.3516L44.9766 31.3711L44.8594 31.5469V31.6641L45.0156 32.4258H44.8984L45.0352 32.6406C44.957 32.7708 44.918 32.875 44.918 32.9531H45.0352C45.0482 33.0312 45.0156 33.0703 44.9375 33.0703C44.9375 33.1354 44.9766 33.2396 45.0547 33.3828C45.0156 34.2292 44.9635 34.6523 44.8984 34.6523L45.0156 34.8672V35.082L44.9375 35.2969C45.0026 35.2969 45.0352 35.3294 45.0352 35.3945H44.9375L45.0352 35.6094L45.0547 35.707L44.957 35.9219H45.0547C44.9245 36.1432 44.8659 36.3516 44.8789 36.5469V36.8789C44.9831 38.6497 45.0938 39.5352 45.2109 39.5352L45.0156 39.9648C45.0286 40.082 45.1133 40.2904 45.2695 40.5898C45.2044 40.7201 45.1784 40.8633 45.1914 41.0195C45.1914 41.0977 45.224 41.2018 45.2891 41.332C45.237 41.4753 45.2109 41.5859 45.2109 41.6641H45.3086L45.2305 41.8594V42.1914C45.2435 42.3477 45.2826 42.4844 45.3477 42.6016C45.2305 43.0443 45.1719 43.3307 45.1719 43.4609C45.1719 43.526 45.2109 43.5586 45.2891 43.5586L45.2109 44.3008L45.25 45.1602C45.25 45.2253 45.2174 45.2578 45.1523 45.2578L45.2695 45.4727L45.2891 46.2148C45.3021 46.4102 45.25 46.625 45.1328 46.8594L45.2305 47.0742C45.1523 48.6237 45.0872 49.3984 45.0352 49.3984L45.1328 49.6133L45.0547 50.1406H45.1523C45.0352 50.6354 44.944 50.8763 44.8789 50.8633L44.9961 51.4102C45.0091 51.6315 44.9505 51.8724 44.8203 52.1328L45.0352 52.2695L44.957 52.4844L44.9961 53.4414C44.9961 53.5065 44.957 53.5326 44.8789 53.5195L45.1133 53.9688H44.8984L44.957 55.4531C44.9701 55.5182 44.944 55.5443 44.8789 55.5312C44.8789 55.6094 44.9115 55.6549 44.9766 55.668L44.8984 56.1953L45.0156 56.7227C48.6484 56.4102 50.8359 56.2669 51.5781 56.293L52.3203 56.4297C53.4401 56.2604 55.3086 56.1758 57.9258 56.1758L57.9062 55.5508C57.8932 55.2643 57.9258 55.1211 58.0039 55.1211L57.8477 54.3789L57.6914 50.7656C57.6654 50.1146 57.5938 49.1901 57.4766 47.9922L57.5547 47.7773C57.4896 47.6471 57.4505 47.5039 57.4375 47.3477C57.5026 47.3477 57.5352 47.3151 57.5352 47.25H57.4375L57.5156 47.0352L57.418 46.8203H57.5156L57.3984 46.6055L57.4961 46.3906L57.3789 45.9805C57.418 45.4857 57.431 45.0951 57.418 44.8086H57.3203L57.418 44.5938L57.2812 41.5078C57.2812 41.4427 57.2487 41.4102 57.1836 41.4102L57.2617 41.1953L57.2422 40.7656L57.0273 40.4531L56.9102 38.1094L57.457 38.0117C58.6029 39.4701 59.4427 40.2057 59.9766 40.2188C60.3932 40.6094 61.2917 40.9609 62.6719 41.2734H62.7891C63.362 41.2995 64.0326 41.3516 64.8008 41.4297C65.7643 41.0911 66.9753 40.5703 68.4336 39.8672C69.3451 39.0599 70.1068 38.5846 70.7188 38.4414C70.7057 38.2721 71.2526 37.8685 72.3594 37.2305C74.8854 35.1211 76.194 33.9167 76.2852 33.6172C77.1966 32.6667 77.9648 31.625 78.5898 30.4922C79.2279 29.3464 79.7812 27.9987 80.25 26.4492C80.5495 25.2643 80.6862 24.457 80.6602 24.0273V23.7148C80.6341 23.1289 80.2565 21.8789 79.5273 19.9648L77.0273 15.8438C76.6107 15.4661 76.1354 15.0951 75.6016 14.7305C75.1979 14.0273 74.1302 13.1419 72.3984 12.0742C70.6797 10.681 68.707 9.94531 66.4805 9.86719ZM47.3984 9.57422C47.2552 9.84766 47.0794 9.98438 46.8711 9.98438V10.1016C46.8841 10.1927 47.112 10.4076 47.5547 10.7461C47.9714 10.5508 48.2122 10.4531 48.2773 10.4531C48.2773 10.362 47.9844 10.069 47.3984 9.57422ZM79.8398 17.3086L79.8594 17.4062C79.9375 17.4193 80.4258 18.2526 81.3242 19.9062L82.6719 21.1172L82.8281 20.1602L79.8398 17.3086ZM64.7422 18.4023C64.7422 18.4935 65.3216 18.7604 66.4805 19.2031C67.1315 19.5938 67.457 19.8542 67.457 19.9844C67.8216 20.1667 68.2253 20.5703 68.668 21.1953C69.2018 22.237 69.4883 23.1289 69.5273 23.8711L69.5664 24.8281C69.6185 26.013 69.0456 27.3411 67.8477 28.8125C67.5091 29.6328 66.832 30.349 65.8164 30.9609C64.5924 31.7031 63.694 32.0677 63.1211 32.0547H63.0039C61.1549 31.9896 59.5143 31.5794 58.082 30.8242C58.069 30.681 57.7826 30.5312 57.2227 30.375C56.9622 30.362 56.7214 29.8216 56.5 28.7539C56.5 28.6888 56.5326 28.5846 56.5977 28.4414C56.2721 26.0456 56.0703 24.7305 55.9922 24.4961C55.9922 24.431 56.0247 24.3984 56.0898 24.3984C55.9466 23.3047 55.8099 22.556 55.6797 22.1523C56.2917 21.4362 57.3203 20.7591 58.7656 20.1211C59.8333 19.4701 60.7318 19.0794 61.4609 18.9492C63.0365 18.6497 63.8438 18.5 63.8828 18.5L64.0977 18.5977C64.332 18.4674 64.5469 18.4023 64.7422 18.4023ZM63.043 20.9219L62.8281 20.7852C62.125 20.8372 61.7734 20.9284 61.7734 21.0586C61.8516 21.5664 61.9362 21.8203 62.0273 21.8203L61.9492 22.3672C62.0143 23.7344 62.1901 24.5547 62.4766 24.8281C64.7292 24.6589 65.849 24.4766 65.8359 24.2812C66.6562 23.3177 67.1315 22.8424 67.2617 22.8555H67.3789L67.3594 22.6406C67.0339 21.5729 66.5195 21.026 65.8164 21C65.8034 20.8958 65.6211 20.7786 65.2695 20.6484C65.1393 20.6484 64.3971 20.7396 63.043 20.9219ZM57.9453 23.0703L57.9648 23.5C58.0951 23.6953 59.9766 25.5638 63.6094 29.1055H63.7266C64.0781 28.9362 64.2474 28.7995 64.2344 28.6953C62.9193 27.237 62.0729 26.5013 61.6953 26.4883C60.5365 25.7721 59.8659 25.0039 59.6836 24.1836L58.3555 22.7773C58.082 22.8685 57.9453 22.9661 57.9453 23.0703ZM58.1602 25.082L58.082 26.1562L61.9492 29.8867C62.1185 29.7565 62.3659 29.6979 62.6914 29.7109L62.6719 29.5938C62.6328 29.4505 61.1289 27.9466 58.1602 25.082ZM63.9414 26.9766C63.9544 27.0677 64.3255 27.4388 65.0547 28.0898L65.4453 27.3672L64.8984 26.918L63.9414 26.9766ZM58.375 27.7578V28.0703C58.5443 28.3828 59.026 28.7539 59.8203 29.1836L59.8008 29.0664L58.375 27.7578ZM60.2109 42.7773V42.8945L62.418 44.9844C62.3789 43.9557 62.0339 43.2721 61.3828 42.9336C60.6016 42.9076 60.2109 42.8555 60.2109 42.7773ZM59.7227 43.7148L59.7617 44.7695C59.7617 44.8607 60.7969 45.8893 62.8672 47.8555L62.8086 46.7812C62.8086 46.7031 61.7799 45.681 59.7227 43.7148ZM59.8398 46.2539L59.8789 47.3281C59.8789 47.4193 60.7643 48.2982 62.5352 49.9648C62.7174 49.431 62.8086 49.151 62.8086 49.125L59.8398 46.2539ZM59.9375 48.8125L59.9961 49.8867C60.0091 49.9909 60.5234 50.4987 61.5391 51.4102H61.6367C61.6367 51.2539 61.7409 51.0521 61.9492 50.8047C61.9362 50.7135 61.2656 50.0495 59.9375 48.8125ZM60.0547 51.3711L60.0938 52.1133C60.1068 52.5039 60.2956 52.7969 60.6602 52.9922L61.0508 52.25L60.0547 51.3711ZM107.926 0.765625C107.991 0.765625 108.023 0.804688 108.023 0.882812L108.551 0.765625H109.195C110.914 0.908854 111.865 0.980469 112.047 0.980469L112.262 1.09766V0.980469C113.03 1.1888 113.564 1.29297 113.863 1.29297V1.19531C115.569 1.54688 116.767 1.97005 117.457 2.46484C117.704 2.46484 118.271 2.81641 119.156 3.51953C120.211 4.11849 121.52 5.4987 123.082 7.66016C123.707 8.55859 124.02 9.3724 124.02 10.1016C124.241 10.4531 124.599 11.5469 125.094 13.3828C125.094 13.4479 125.055 13.4805 124.977 13.4805C125.029 13.9753 125.1 14.2227 125.191 14.2227C125.191 14.3008 125.159 14.3398 125.094 14.3398C125.185 15.2122 125.289 15.7786 125.406 16.0391H125.309C125.439 16.3906 125.504 17.0221 125.504 17.9336V18.0508C125.504 18.8451 125.4 19.724 125.191 20.6875H125.309C124.475 25.1536 122.991 28.9362 120.855 32.0352C120.361 32.8555 120.113 33.3177 120.113 33.4219V33.6172C121.572 35.4271 123.408 37.4062 125.621 39.5547C125.621 39.763 126.116 40.3294 127.105 41.2539C127.105 41.5273 126.891 42.1654 126.461 43.168L126.578 43.3828C126.005 46.7682 125.719 49.0273 125.719 50.1602C125.654 50.1602 125.582 50.3359 125.504 50.6875C125.504 50.7526 125.543 50.7852 125.621 50.7852C125.621 51.4232 125.335 51.7422 124.762 51.7422C124.762 52.0286 124.378 52.3151 123.609 52.6016C123.609 52.7448 122.9 53.3438 121.48 54.3984C120.543 55.2708 119.801 55.8372 119.254 56.0977C119.254 56.2409 118.264 57.1589 116.285 58.8516L114.391 60.6484L113.316 61.7031H112.906V61.1758C111.552 58.9883 110.667 57.7188 110.25 57.3672C110.315 57.3672 110.348 57.3281 110.348 57.25C110.178 57.25 109.26 56.013 107.594 53.5391C107.294 52.901 106.943 52.4453 106.539 52.1719C106.539 52.0807 106.363 51.8008 106.012 51.332H105.797C105.302 53.5977 104.417 56.2083 103.141 59.1641L100.074 59.8086C100.074 59.7305 100.042 59.6914 99.9766 59.6914C99.9766 59.7695 99.9375 59.8086 99.8594 59.8086V59.6914C99.0391 59.9779 98.1602 60.1536 97.2227 60.2188V60.3359C97.1445 60.3359 97.1055 60.2969 97.1055 60.2188C96.2331 60.2969 95.3542 60.4727 94.4688 60.7461C94.1953 60.7461 93.5182 60.8893 92.4375 61.1758V61.0781C92.0339 61.1953 91.5391 61.2995 90.9531 61.3906C90.9531 61.3255 90.9206 61.293 90.8555 61.293C90.8555 61.3971 90.2174 61.6055 88.9414 61.918C88.9414 62.1003 88.5182 62.2435 87.6719 62.3477C87.6719 62.4909 87.4961 62.5625 87.1445 62.5625C87.0404 62.5625 86.8971 62.4193 86.7148 62.1328V61.293L86.6172 60.6484C86.7083 60.2188 86.8125 60.0039 86.9297 60.0039L86.832 59.8086V58.7344C86.832 58.6693 86.8646 58.6367 86.9297 58.6367C86.8646 58.4935 86.832 58.3893 86.832 58.3242C86.9753 58.0898 87.0469 57.875 87.0469 57.6797V56.5078C87.0469 56.4427 87.0078 56.4102 86.9297 56.4102L87.0469 56.1953V53.7539C87.0469 53.6888 87.0794 53.6562 87.1445 53.6562L87.0469 53.4414V49.1055H87.2617V48.3633C87.2617 48.2852 87.2943 48.2461 87.3594 48.2461L87.1445 47.0938C87.2227 47.0938 87.2617 47.0547 87.2617 46.9766H87.1445C87.1445 46.9115 87.1836 46.8789 87.2617 46.8789C87.1185 46.3841 87.0469 45.9609 87.0469 45.6094V45.4922C87.0599 45.1406 87.1315 44.9648 87.2617 44.9648C87.2617 44.8997 87.2227 44.8672 87.1445 44.8672L87.2617 44.3203V40.082C87.2617 40.0169 87.2943 39.9844 87.3594 39.9844L87.2617 39.7695V39.3398C87.2617 39.2747 87.2943 39.2422 87.3594 39.2422L87.2617 39.0273V36.8008C87.4701 35.9674 87.5742 35.2643 87.5742 34.6914C87.5221 33.5586 87.4505 32.9922 87.3594 32.9922C87.4766 32.6146 87.6198 31.4102 87.7891 29.3789H87.6719L87.7891 29.1641V25.5703C87.7891 25.2708 87.8216 24.8802 87.8867 24.3984C87.8867 24.3333 87.8542 24.3008 87.7891 24.3008C87.9323 23.7018 88.0039 22.9206 88.0039 21.957V20.2773C88.0039 19.5352 88.0365 18.4023 88.1016 16.8789H88.1992L88.1016 16.6641V14.9648C88.1016 13.9492 88.3164 13.1029 88.7461 12.4258C88.7461 12.2174 89.306 10.9479 90.4258 8.61719C91.1419 6.49479 91.8125 5.43359 92.4375 5.43359C92.9062 5.04297 94.2148 4.44401 96.3633 3.63672C101.025 2.00911 104.065 1.19531 105.484 1.19531C105.484 1.10417 106.298 0.960938 107.926 0.765625ZM107.281 3.10938C111.5 7.48438 113.759 9.67188 114.059 9.67188C114.749 9.8151 115.211 9.99089 115.445 10.1992V10.1016C110.758 5.4401 108.355 3.10938 108.238 3.10938C107.952 3.10938 107.809 3.07031 107.809 2.99219C107.691 3.07031 107.516 3.10938 107.281 3.10938ZM109.82 3.10938V3.20703C115.419 8.79297 118.284 11.5859 118.414 11.5859C118.714 11.5859 119.488 12.3281 120.738 13.8125C121.35 14.6328 122.021 15.4076 122.75 16.1367L123.082 16.3516C123.082 15.3359 122.652 14.5612 121.793 14.0273C118.212 10.3424 114.612 6.73568 110.992 3.20703H110.035L109.82 3.10938ZM105.055 3.42188C108.466 6.95052 110.27 8.71484 110.465 8.71484C110.895 8.71484 111.285 8.78646 111.637 8.92969C111.598 8.8125 109.723 6.9375 106.012 3.30469H105.797L105.055 3.42188ZM112.789 3.51953C115.862 6.69661 119.15 9.98438 122.652 13.3828C122.652 12.3672 122.366 11.7292 121.793 11.4688C116.78 6.3125 114.169 3.73438 113.961 3.73438C113.362 3.59115 112.971 3.51953 112.789 3.51953ZM102.828 3.73438L107.496 8.5C107.743 8.4349 108.095 8.40234 108.551 8.40234C108.551 8.3112 106.962 6.72266 103.785 3.63672C103.408 3.70182 103.089 3.73438 102.828 3.73438ZM100.816 4.37891C100.934 4.39193 102.346 5.80469 105.055 8.61719C105.302 8.53906 105.654 8.5 106.109 8.5C106.07 8.36979 104.592 6.88542 101.676 4.04688C101.103 4.125 100.816 4.23568 100.816 4.37891ZM98.9023 4.78906V4.90625C98.9544 5.04948 100.406 6.49479 103.258 9.24219H103.473C103.642 9.09896 103.818 9.02734 104 9.02734V8.92969C103.948 8.78646 102.496 7.34115 99.6445 4.59375C99.3711 4.72396 99.1237 4.78906 98.9023 4.78906ZM116.93 5.12109V5.21875L121.793 9.98438C121.272 8.96875 120.673 8.26562 119.996 7.875C118.915 6.5599 117.893 5.64193 116.93 5.12109ZM97.0078 5.43359V5.53125C97.0078 5.6224 98.349 6.97005 101.031 9.57422H101.246C101.311 9.57422 101.344 9.53516 101.344 9.45703L101.559 9.57422H101.773L101.988 9.45703C101.988 9.53516 102.021 9.57422 102.086 9.57422V9.45703C101.969 9.43099 100.556 8.01823 97.8477 5.21875C97.5872 5.36198 97.3073 5.43359 97.0078 5.43359ZM95.0938 6.17578C95.0938 6.26693 96.4349 7.60807 99.1172 10.1992C99.3906 9.99089 99.6055 9.88672 99.7617 9.88672V9.76953C97.3529 7.23047 96.0443 5.96094 95.8359 5.96094L95.0938 6.17578ZM93.5117 7.23047L97.0078 10.6289H97.2227C97.2227 10.5247 97.3594 10.3815 97.6328 10.1992C97.6328 10.1081 96.4674 8.94271 94.1367 6.70312H93.9219C93.7786 6.72917 93.6419 6.90495 93.5117 7.23047ZM93.082 8.30469C93.082 8.57812 92.9779 8.71484 92.7695 8.71484V8.92969C92.7695 9.02083 93.5117 9.76302 94.9961 11.1562L95.7383 10.9414V10.8438C95.7383 10.7396 94.8854 9.89323 93.1797 8.30469H93.082ZM92.3398 9.98438C92.1315 10.5052 92.0273 10.7917 92.0273 10.8438L93.082 11.8008H93.1797C93.4531 11.5794 93.668 11.4688 93.8242 11.4688C93.8242 11.3646 93.3294 10.8698 92.3398 9.98438ZM107.711 10.9414H106.539C105.914 10.9414 104.43 11.2604 102.086 11.8984C102.021 11.8984 101.988 11.8659 101.988 11.8008C101.52 11.8659 101.168 11.9701 100.934 12.1133L100.504 11.9961C99.5013 12.1654 98.2969 12.556 96.8906 13.168C96.2135 13.168 94.5208 13.7669 91.8125 14.9648L90.2109 15.8242V16.1367C90.2109 16.2018 90.25 16.2344 90.3281 16.2344C90.25 16.3776 90.2109 16.4883 90.2109 16.5664C90.2109 16.6315 90.25 16.6641 90.3281 16.6641L90.2109 17.1914V17.4062L90.3281 17.6211C90.25 17.6211 90.2109 17.6536 90.2109 17.7188C90.3542 17.7448 90.4258 17.8164 90.4258 17.9336V18.0508L90.2109 18.3633V18.4609C90.2109 18.5391 90.25 18.5781 90.3281 18.5781L90.2109 18.793C90.2109 18.8581 90.25 18.8906 90.3281 18.8906L90.2109 19.1055V19.6328C90.2109 19.7109 90.25 19.75 90.3281 19.75L90.2109 19.9453V20.375C90.2109 20.5312 90.25 20.6745 90.3281 20.8047C90.25 20.9219 90.2109 21.0651 90.2109 21.2344H90.3281L90.2109 21.4297V21.5469C90.2109 21.612 90.25 21.6445 90.3281 21.6445L90.2109 21.8594V22.5039C90.2109 22.569 90.25 22.6016 90.3281 22.6016L90.2109 22.8164V23.0312C90.2109 23.0964 90.25 23.1289 90.3281 23.1289L90.2109 23.3438V23.4414C90.2109 23.5195 90.25 23.5586 90.3281 23.5586L90.2109 23.7734V26.957L90.1133 27.4844H90.2109C90.2109 27.5495 90.1784 27.582 90.1133 27.582C90.1784 27.9727 90.2109 28.2526 90.2109 28.4219C90.2109 28.7865 90.1458 28.9688 90.0156 28.9688L90.1133 29.1641C90.1133 29.2422 90.0807 29.3529 90.0156 29.4961C90.0807 29.8867 90.1133 30.1667 90.1133 30.3359L90.0156 30.7656H90.1133L90.0156 30.9805C90.0807 31.1107 90.1133 31.2148 90.1133 31.293H90.0156C90.0156 31.3581 90.0482 31.3906 90.1133 31.3906L89.8008 33.0898C89.8659 33.4674 89.8984 33.6823 89.8984 33.7344C89.8333 34.0078 89.8008 34.2552 89.8008 34.4766C89.8659 34.4766 89.8984 34.5091 89.8984 34.5742H89.8008L89.8984 34.7891V35.3164C89.8984 35.3945 89.8659 35.4336 89.8008 35.4336C89.8659 35.5638 89.8984 35.668 89.8984 35.7461L89.8008 36.7031C89.8659 36.8333 89.8984 36.9375 89.8984 37.0156H89.8008C89.8659 37.1589 89.8984 37.263 89.8984 37.3281L89.6836 37.7578C89.6836 37.8229 89.7227 37.8555 89.8008 37.8555L89.6836 38.4023V39.1445C89.6836 39.2096 89.7227 39.2422 89.8008 39.2422L89.6836 39.457V43.9102C89.6836 43.9753 89.7227 44.0078 89.8008 44.0078L89.5859 45.2773C89.5859 45.3555 89.6185 45.3945 89.6836 45.3945L89.5859 45.9219C89.5859 46.0781 89.6185 46.2214 89.6836 46.3516L89.5859 46.5469L89.6836 46.7617C89.6836 46.8398 89.651 46.8789 89.5859 46.8789L89.6836 47.4062V49.1055C89.6836 49.1706 89.651 49.2031 89.5859 49.2031C89.651 49.3464 89.6836 49.4505 89.6836 49.5156C89.5534 50.1536 89.4883 50.6159 89.4883 50.9023V54.9258C89.4883 54.9909 89.5208 55.0234 89.5859 55.0234L89.4883 55.2383V55.8828C89.6185 56.9115 89.6836 57.4779 89.6836 57.582H89.5859L89.6836 57.7969V59.0664L90.7578 58.9492H90.9531V58.7344C91.2526 58.7344 93.3424 58.3503 97.2227 57.582C97.3398 57.6471 97.4766 57.6797 97.6328 57.6797H97.75L99.5469 57.1523H100.289C100.471 57.0091 100.647 56.9375 100.816 56.9375V54.0859L100.934 53.8711H100.816C100.895 53.7279 100.934 53.6172 100.934 53.5391L100.816 53.3438C100.816 53.2656 100.855 53.2266 100.934 53.2266L100.816 52.6992V49.5156C100.816 49.4505 100.784 49.418 100.719 49.418L100.816 49.2031V46.4492C100.816 46.293 100.855 46.1497 100.934 46.0195C100.842 45.056 100.732 44.2096 100.602 43.4805C100.68 43.3372 100.719 43.2331 100.719 43.168L100.504 43.0508C100.647 42.6862 100.719 42.4062 100.719 42.2109H100.934C100.934 42.4714 101.285 42.7904 101.988 43.168C101.988 43.3112 102.411 43.7669 103.258 44.5352C103.596 44.5352 104.443 45.4531 105.797 47.2891C106.24 47.5365 106.702 48.1419 107.184 49.1055C107.822 49.6523 108.948 51.0977 110.562 53.4414C110.562 53.5586 111.096 54.2682 112.164 55.5703C112.164 55.7917 112.372 56.0716 112.789 56.4102C113.167 57.1133 113.486 57.5365 113.746 57.6797C114.02 57.6797 114.371 57.4323 114.801 56.9375C115.113 56.3646 115.719 55.7982 116.617 55.2383C116.747 55.0039 117.594 54.3333 119.156 53.2266C119.339 52.8099 120.081 52.2435 121.383 51.5273C121.943 51.2018 122.223 50.9935 122.223 50.9023V50.6875C121.962 50.2057 121.467 49.5677 120.738 48.7734L119.586 47.1914C119.586 47.0612 119.339 46.7812 118.844 46.3516C118.844 46.1693 118.525 45.7786 117.887 45.1797C116.897 44.0469 116.402 43.3763 116.402 43.168C116.22 43.168 116.077 43.0247 115.973 42.7383C113.655 40.1992 112.385 38.9297 112.164 38.9297V38.8125L112.262 38.5977C112.197 38.5977 112.164 38.5651 112.164 38.5C112.255 38.5 112.359 38.2852 112.477 37.8555C113.023 37.4909 113.551 36.9961 114.059 36.3711C116.376 34.0924 117.971 32.1198 118.844 30.4531C119.039 30.4531 119.286 30.0625 119.586 29.2812C120.927 27.2109 121.598 24.6654 121.598 21.6445V21.1172C121.598 20.5182 121.526 20.0625 121.383 19.75C121.448 19.6198 121.48 19.4766 121.48 19.3203C121.48 19.2161 121.409 18.8971 121.266 18.3633H121.383L120.953 16.9766C120.12 15.0885 118.954 13.819 117.457 13.168C115.868 12.1784 113.993 11.5078 111.832 11.1562C111.116 10.9479 110.341 10.8438 109.508 10.8438H108.453L107.926 10.9414V10.8438L107.711 10.9414ZM105.172 21.5469C106.526 21.5469 107.724 22.0742 108.766 23.1289C109.052 23.2461 109.332 23.8451 109.605 24.9258C109.605 25.0039 109.573 25.043 109.508 25.043C109.651 25.7852 109.723 26.2409 109.723 26.4102H109.605C109.605 26.4883 109.645 26.5273 109.723 26.5273C109.462 28.1549 109.143 28.9688 108.766 28.9688V29.0664L108.883 29.2812C108.57 29.2812 108.284 29.6719 108.023 30.4531L106.109 32.875C105.615 33.1615 105.263 33.5521 105.055 34.0469C104.794 34.0469 104.267 34.5091 103.473 35.4336C103.329 35.4336 102.978 35.7135 102.418 36.2734C102.327 36.2734 101.936 36.625 101.246 37.3281C101.129 37.3281 100.986 37.3997 100.816 37.543C100.517 37.543 100.309 36.8008 100.191 35.3164C100.048 35.3164 99.9375 34.75 99.8594 33.6172C99.8594 33.2786 99.8984 32.8555 99.9766 32.3477C99.8984 31.4232 99.8594 30.4336 99.8594 29.3789V28.4219C99.8594 28.3568 99.8984 28.3242 99.9766 28.3242C99.7552 27.1523 99.6445 26.3776 99.6445 26V24.5156C99.6445 24.4375 99.6836 24.3984 99.7617 24.3984C99.7617 24.3464 99.6185 24.0273 99.332 23.4414C99.4622 23.1419 100.38 22.6471 102.086 21.957V22.0742C102.398 21.931 102.997 21.7878 103.883 21.6445H105.055C105.133 21.6445 105.172 21.612 105.172 21.5469ZM105.367 24.1836L107.281 26V24.9258L105.914 23.4414C105.667 23.4414 105.484 23.6888 105.367 24.1836ZM101.871 24.6133L101.773 24.8281V25.5703C101.773 25.6615 102.092 25.9805 102.73 26.5273H102.828C102.828 26.3971 102.9 26.1107 103.043 25.668L101.871 24.6133ZM105.055 25.2578L104.742 26.0977L106.441 27.6992H106.539C106.539 27.4518 106.643 27.2044 106.852 26.957L105.055 25.2578ZM104.43 27.1523C104.286 27.7383 104.215 28.0573 104.215 28.1094L105.484 29.2812H105.582C105.803 28.8776 105.914 28.6302 105.914 28.5391L104.43 27.1523ZM103.883 29.1641C103.753 29.75 103.688 30.069 103.688 30.1211C104.143 30.5508 104.391 30.7656 104.43 30.7656L104.84 30.2383V30.1211C104.84 30.0299 104.521 29.7109 103.883 29.1641ZM118.102 35.7461C118.102 35.9805 117.919 36.1562 117.555 36.2734C118.648 37.4453 120.803 39.6003 124.02 42.7383C124.163 42.4779 124.234 42.1979 124.234 41.8984C122.464 40.0365 120.419 37.9857 118.102 35.7461ZM116.402 37.6602C118.642 39.9779 121.116 42.4453 123.824 45.0625C123.824 44.6068 123.857 44.2552 123.922 44.0078L116.93 37.1133C116.839 37.1133 116.663 37.2956 116.402 37.6602ZM115.66 38.4023C115.66 38.4805 115.549 38.6562 115.328 38.9297C115.419 38.9297 115.986 39.4961 117.027 40.6289C117.184 40.6289 118.388 41.931 120.641 44.5352L123.492 47.2891V46.2344C121.188 43.8385 118.577 41.2279 115.66 38.4023ZM103.043 48.7734C103.043 48.9948 103.01 49.2422 102.945 49.5156C103.062 49.8411 103.31 50.1276 103.688 50.375C103.896 49.8932 104 49.6068 104 49.5156L103.141 48.7734H103.043Z" fill="#F46D1B"/>
</svg>
